<mxfile host="app.diagrams.net" agent="Mozilla/5.0 (X11; Linux x86_64; rv:133.0) Gecko/20100101 Firefox/133.0" version="26.0.16">
  <diagram id="f106602c-feb2-e66a-4537-3a34d633f6aa" name="Page-1">
    <mxGraphModel dx="1024" dy="539" grid="0" gridSize="10" guides="1" tooltips="1" connect="0" arrows="0" fold="1" page="0" pageScale="1" pageWidth="1169" pageHeight="827" background="none" math="0" shadow="0">
      <root>
        <mxCell id="0" />
        <mxCell id="1" parent="0" />
        <mxCell id="1wwzodUEzshTRSnOpasv-677" value="" style="aspect=fixed;sketch=0;html=1;dashed=0;whitespace=wrap;verticalLabelPosition=bottom;verticalAlign=top;fillColor=#2875E2;strokeColor=#ffffff;points=[[0.005,0.63,0],[0.1,0.2,0],[0.9,0.2,0],[0.5,0,0],[0.995,0.63,0],[0.72,0.99,0],[0.5,1,0],[0.28,0.99,0]];shape=mxgraph.kubernetes.icon2;prIcon=api" parent="1" vertex="1">
          <mxGeometry x="549" y="223.00323353293413" width="0.3373073610145394" height="0.32378916344088254" as="geometry" />
        </mxCell>
        <mxCell id="IcMdWuEY-IhWfZo9XxpC-586" value="" style="rounded=1;whiteSpace=wrap;html=1;strokeColor=#7B838A;dashed=1;arcSize=7;" parent="1" vertex="1">
          <mxGeometry x="358.5" y="204.62" width="481.5" height="434.38" as="geometry" />
        </mxCell>
        <mxCell id="IcMdWuEY-IhWfZo9XxpC-589" value="" style="group;fillColor=default;" parent="1" vertex="1" connectable="0">
          <mxGeometry x="550" y="189" width="100" height="30" as="geometry" />
        </mxCell>
        <mxCell id="IcMdWuEY-IhWfZo9XxpC-587" value="Kubernetes" style="text;html=1;align=center;verticalAlign=middle;whiteSpace=wrap;rounded=0;fontFamily=Roboto;fontSource=https%3A%2F%2Ffonts.googleapis.com%2Fcss%3Ffamily%3DRoboto;horizontal=1;fontStyle=1;labelPosition=center;verticalLabelPosition=middle;fontColor=#7B838A;" parent="IcMdWuEY-IhWfZo9XxpC-589" vertex="1">
          <mxGeometry x="34.54545454545455" width="65.45454545454545" height="30" as="geometry" />
        </mxCell>
        <mxCell id="IcMdWuEY-IhWfZo9XxpC-588" value="" style="image;sketch=0;aspect=fixed;html=1;points=[];align=center;fontSize=12;image=img/lib/mscae/Kubernetes.svg;" parent="IcMdWuEY-IhWfZo9XxpC-589" vertex="1">
          <mxGeometry y="1.1999999999999886" width="27.272727272727273" height="26.18181818181818" as="geometry" />
        </mxCell>
        <mxCell id="IcMdWuEY-IhWfZo9XxpC-592" value="" style="rounded=1;whiteSpace=wrap;html=1;dashed=1;strokeColor=#1971c2;arcSize=7;" parent="1" vertex="1">
          <mxGeometry x="376" y="237" width="320" height="389" as="geometry" />
        </mxCell>
        <mxCell id="IcMdWuEY-IhWfZo9XxpC-600" value="" style="group;fillColor=default;" parent="1" vertex="1" connectable="0">
          <mxGeometry x="495.5" y="223.33" width="59" height="30" as="geometry" />
        </mxCell>
        <mxCell id="IcMdWuEY-IhWfZo9XxpC-594" value="VUI" style="text;html=1;align=center;verticalAlign=middle;whiteSpace=wrap;rounded=0;fontFamily=Roboto;fontSource=https%3A%2F%2Ffonts.googleapis.com%2Fcss%3Ffamily%3DRoboto;horizontal=1;fontStyle=1;labelPosition=center;verticalLabelPosition=middle;fontColor=#7B838A;" parent="IcMdWuEY-IhWfZo9XxpC-600" vertex="1">
          <mxGeometry x="21" width="38" height="30" as="geometry" />
        </mxCell>
        <mxCell id="IcMdWuEY-IhWfZo9XxpC-628" value="" style="shape=image;verticalLabelPosition=bottom;labelBackgroundColor=default;verticalAlign=top;aspect=fixed;imageAspect=0;image=data:image/svg+xml,PHN2ZyBjbGFzcz0iaWNvbiBpY29uLXRhYmxlciBpY29ucy10YWJsZXItb3V0bGluZSBpY29uLXRhYmxlci1zYWlsYm9hdCIgc3Ryb2tlLWxpbmVqb2luPSJyb3VuZCIgc3Ryb2tlLWxpbmVjYXA9InJvdW5kIiBzdHJva2Utd2lkdGg9IjEuNSIgc3Ryb2tlPSIjZmZmIiBmaWxsPSJub25lIiB2aWV3Qm94PSIwIDAgMjQgMjQiIGhlaWdodD0iMjAwIiB3aWR0aD0iMjAwIiB4bWxucz0iaHR0cDovL3d3dy53My5vcmcvMjAwMC9zdmciPiYjeGE7ICAgIDxjaXJjbGUgZmlsbD0iIzE5NzFjMiIgc3Ryb2tlPSIjMTk3MWMyIiByPSIxMSIgY3k9IjEyIiBjeD0iMTIiLz4mI3hhOyAgICA8cGF0aCBmaWxsPSJub25lIiBkPSJNMCAwaDI0djI0SDB6IiBzdHJva2U9Im5vbmUiLz4mI3hhOyAgICA8cGF0aCBkPSJNMiAyMGEyLjQgMi40IDAgMCAwIDIgMWEyLjQgMi40IDAgMCAwIDIgLTFhMi40IDIuNCAwIDAgMSAyIC0xYTIuNCAyLjQgMCAwIDEgMiAxYTIuNCAyLjQgMCAwIDAgMiAxYTIuNCAyLjQgMCAwIDAgMiAtMWEyLjQgMi40IDAgMCAxIDIgLTFhMi40IDIuNCAwIDAgMSAyIDFhMi40IDIuNCAwIDAgMCAyIDFhMi40IDIuNCAwIDAgMCAyIC0xIi8+JiN4YTsgICAgPHBhdGggZD0iTTQgMThsLTEgLTNoMThsLTEgMyIvPiYjeGE7ICAgIDxwYXRoIGQ9Ik0xMSAxMmg3bC03IC05djkiLz4mI3hhOyAgICA8cGF0aCBkPSJNOCA3bC0yIDUiLz4mI3hhOzwvc3ZnPg==;" parent="IcMdWuEY-IhWfZo9XxpC-600" vertex="1">
          <mxGeometry x="1" y="2.5" width="25" height="25" as="geometry" />
        </mxCell>
        <mxCell id="IcMdWuEY-IhWfZo9XxpC-606" value="" style="group;arcSize=7;" parent="1" vertex="1" connectable="0">
          <mxGeometry x="490" y="279" width="70" height="80.5" as="geometry" />
        </mxCell>
        <mxCell id="IcMdWuEY-IhWfZo9XxpC-601" value="" style="rounded=1;whiteSpace=wrap;html=1;strokeColor=#1971c2;" parent="IcMdWuEY-IhWfZo9XxpC-606" vertex="1">
          <mxGeometry width="70" height="80.5" as="geometry" />
        </mxCell>
        <mxCell id="IcMdWuEY-IhWfZo9XxpC-602" value="" style="sketch=0;html=1;aspect=fixed;strokeColor=none;shadow=0;fillColor=#1971c2;verticalAlign=middle;labelPosition=right;verticalLabelPosition=middle;shape=mxgraph.gcp2.website;align=left;spacingLeft=20;" parent="IcMdWuEY-IhWfZo9XxpC-606" vertex="1">
          <mxGeometry x="22.557617554858894" y="15.882499999999936" width="27.443202614379082" height="26.62173202614379" as="geometry" />
        </mxCell>
        <mxCell id="IcMdWuEY-IhWfZo9XxpC-605" value="&lt;font data-font-src=&quot;https://fonts.googleapis.com/css?family=Roboto&quot; face=&quot;Roboto&quot;&gt;&lt;b&gt;VUI-UI&lt;/b&gt;&lt;/font&gt;" style="text;html=1;align=center;verticalAlign=middle;whiteSpace=wrap;rounded=0;" parent="IcMdWuEY-IhWfZo9XxpC-606" vertex="1">
          <mxGeometry x="5" y="44.5" width="60" height="30" as="geometry" />
        </mxCell>
        <mxCell id="IcMdWuEY-IhWfZo9XxpC-616" value="" style="group;arcSize=7;fillColor=none;" parent="1" vertex="1" connectable="0">
          <mxGeometry x="214" y="351.99999999999994" width="50" height="49" as="geometry" />
        </mxCell>
        <mxCell id="IcMdWuEY-IhWfZo9XxpC-598" value="" style="rounded=1;whiteSpace=wrap;html=1;strokeColor=#1971c2;" parent="IcMdWuEY-IhWfZo9XxpC-616" vertex="1">
          <mxGeometry width="50" height="49" as="geometry" />
        </mxCell>
        <mxCell id="1wwzodUEzshTRSnOpasv-615" value="" style="outlineConnect=0;dashed=0;verticalLabelPosition=bottom;verticalAlign=top;align=right;html=1;fontSize=12;fontStyle=0;aspect=fixed;pointerEvents=1;shape=mxgraph.aws4.users;fillColor=#1971c2;strokeColor=#36393d;" parent="IcMdWuEY-IhWfZo9XxpC-616" vertex="1">
          <mxGeometry x="8" y="7.5" width="34" height="32" as="geometry" />
        </mxCell>
        <mxCell id="IcMdWuEY-IhWfZo9XxpC-617" value="" style="group;arcSize=7;" parent="1" vertex="1" connectable="0">
          <mxGeometry x="735" y="459.00000000000006" width="70" height="80.5" as="geometry" />
        </mxCell>
        <mxCell id="IcMdWuEY-IhWfZo9XxpC-618" value="" style="rounded=1;whiteSpace=wrap;html=1;strokeColor=#1971c2;" parent="IcMdWuEY-IhWfZo9XxpC-617" vertex="1">
          <mxGeometry width="70" height="80.5" as="geometry" />
        </mxCell>
        <mxCell id="IcMdWuEY-IhWfZo9XxpC-619" value="&lt;font data-font-src=&quot;https://fonts.googleapis.com/css?family=Roboto&quot; face=&quot;Roboto&quot;&gt;&lt;b&gt;VELERO&lt;/b&gt;&lt;/font&gt;" style="text;html=1;align=center;verticalAlign=middle;whiteSpace=wrap;rounded=0;" parent="IcMdWuEY-IhWfZo9XxpC-617" vertex="1">
          <mxGeometry x="5" y="45.5" width="60" height="30" as="geometry" />
        </mxCell>
        <mxCell id="IcMdWuEY-IhWfZo9XxpC-621" value="" style="shape=image;verticalLabelPosition=bottom;labelBackgroundColor=default;verticalAlign=top;aspect=fixed;imageAspect=0;image=data:image/png,iVBORw0KGgoAAAANSUhEUgAAACoAAAAwCAIAAADo7H/xAAAAA3NCSVQICAjb4U/gAAAFUElEQVRYR+1Xe2xTZRRfu+52rz7X7uXmGGzMPdgYSDZAQEY0m+hQNIaIMUPNFqIohsxoVHA+iZkvjMQwWJSIGqfBCRniFJwQYEwGo4ONQdn70ff7sdvb1rPd5fZre3fbbkv2z26a5n7f75zzO9853znfd1lutzts/h72/FFPMC/Qz2P85zn4nNks3ekOU1qdYxYiPjr8ntiZmApZR2d3NcrNf/RZFVbniJkAD8iHh7GzRBGLBRH5Uu62rNggV8UKvu5vafFGuQV+QMxsPU+CbcviBeNEsPTfXDfU/qdnZvVBwYmqZYKy9GgGraDod/6tau63MlhhgL7aKGXwIDD92p+GAkabgR4gBg8CFF7FacUsuYF+11nVqV764DHRg875YTvzyoJE97fpBoyEv/C09Hf0jppLWn+Fmc0Mm4mXzqj8daete1ZYmNo2VWDLJNjx8iRUOaO+nxreeT4tGKip13Ksy7Q9m4cK02+9bi1uJ9zL47mUKMr3aqFwV6EgVAjk1yRHHi1NCEz/9TXD5+2hVTlqlOG9doPk8SUxlAB97iFQDCZmA5lxF6pOk/seHf7RA3GHO41otaAJPthh+OyKJza/lSdBgyONMkAn5JbXWtQyNR4g+CfvWnb/oz5WltClxetkpgIpdnCTdNBEbGwYJjVJV178U/lEZuzm9OghM/Hgz15QfaeRxWLtyOWhUOszKXf1jr0XtKe2JlMe0Gy9ozdN702WXCqPU5wUyQ1nfd9l8gl4rgSDXnZFYa/+V+MDwaH3TrEIJnecVvpA0RzWUhH28bq4TGEECdHQH7iqP3DV4KM5h0M0jzS5fzKTB+v2WdbLywXPZvOEXPYtnWNL4yjqzfqUqJrVYlCB47+yWdWt82R3VSL3k3USEqo+p2kd9euhcN77PCfl5h+6TWbc+eEl7ZIjffAbNRMg83qLuqRhqGXQCu9QGihUJzPA8LDMgEJtY3YYopDSSpT+OozS0QS/30hs+mUY1rSvWJzGnwhPj87xyPERdMVUABkgkEebFQyhWZUtilkqmko8zNDQw+zW30eve1fIXOW++n5hVb6nY9K3naezvDozyf3GKlHDo4nlSM+ifIKdAeW0s8BjF4WgMexeIYSZmAh2Sar35cc385NjjY0YMDrI7MI/ZBom5Xr8x24TvCgsxFMnRkm0vnMi3yor8WW7Xmd34k4XtWPgBaDbOvz9i9pzQ1at3bn/8sQM+tAHHzz9a8C2Njly3OkmXG5JVPib5zUNPWZyTYceii9JjaLWt++iFo4ycvh2kagil09B394wftCqI4fvrhZni7GVCZ5jDOanpb+hwX0KjDI6s5cNKVFHHo730aXPPQjlxmGV+Z51wAx0wC0ZMVDE/vQrErgVOfycuKnOjwqAHYBgZm+x2F9x2tWTopXNyjODts3pMTVrxHyMDbmI4rA6VPgrZ1VwgQEZEhJgbJPDBQK39Q44C0gIvPl0gyRDEAEQbIs0vqfeKD8C0GvtLrPDdS+PA18Xe1rUoAbJq10vkUaHw90NXEnhcS6P2bc3KQACvreKRAVSLrQpOHJAq00xAe1ZKaQtClAJQA8ShnEXnALf3fQ6dcDifWJMY3PKDY46mRGNalU+P0eMEe4w+Co6JDNCzJ/LoSljUiUwPSnX1GuF0gIylIn5HS4BL+TxH1vsudv4ywdLD5pw4f+iXU+Vn78tambuv/Eo03K9o0M9fk2JXxix9Xlf3YsSIwsTuHlxWOkipu861O8QVu+/XDhhByf3PzyF8VyMDbfz0J5Z0YdGRSc9bduhE577uQX6uY9p0BYXgh90qOZecJ6D/z8Hltw4oe9yRgAAAABJRU5ErkJggg==;" parent="IcMdWuEY-IhWfZo9XxpC-617" vertex="1">
          <mxGeometry x="15.93" y="11" width="34.13" height="39" as="geometry" />
        </mxCell>
        <mxCell id="IcMdWuEY-IhWfZo9XxpC-623" value="" style="endArrow=classic;html=1;rounded=0;entryX=-0.018;entryY=0.5;entryDx=0;entryDy=0;entryPerimeter=0;flowAnimation=1;strokeColor=#1971c2;exitX=0.997;exitY=0.498;exitDx=0;exitDy=0;exitPerimeter=0;startArrow=none;startFill=0;flowAnimationDirection=normal;" parent="1" source="IcMdWuEY-IhWfZo9XxpC-598" target="IcMdWuEY-IhWfZo9XxpC-601" edge="1">
          <mxGeometry width="50" height="50" relative="1" as="geometry">
            <mxPoint x="260" y="339" as="sourcePoint" />
            <mxPoint x="310" y="289" as="targetPoint" />
            <Array as="points">
              <mxPoint x="318" y="376" />
              <mxPoint x="318" y="320" />
            </Array>
          </mxGeometry>
        </mxCell>
        <mxCell id="IcMdWuEY-IhWfZo9XxpC-625" value="" style="endArrow=classic;startArrow=classic;html=1;rounded=0;exitX=0.487;exitY=-0.001;exitDx=0;exitDy=0;exitPerimeter=0;entryX=0.484;entryY=1.006;entryDx=0;entryDy=0;entryPerimeter=0;flowAnimation=1;strokeColor=#1971c2;flowAnimationDirection=alternate;movable=1;resizable=1;rotatable=1;deletable=1;editable=1;locked=0;connectable=1;" parent="1" source="IcMdWuEY-IhWfZo9XxpC-612" target="IcMdWuEY-IhWfZo9XxpC-608" edge="1">
          <mxGeometry width="50" height="50" relative="1" as="geometry">
            <mxPoint x="636" y="319" as="sourcePoint" />
            <mxPoint x="566" y="469" as="targetPoint" />
            <Array as="points" />
          </mxGeometry>
        </mxCell>
        <mxCell id="IcMdWuEY-IhWfZo9XxpC-627" value="" style="endArrow=classic;html=1;rounded=0;entryX=0.004;entryY=0.5;entryDx=0;entryDy=0;entryPerimeter=0;exitX=0.998;exitY=0.498;exitDx=0;exitDy=0;exitPerimeter=0;flowAnimation=1;strokeColor=#1971c2;" parent="1" source="IcMdWuEY-IhWfZo9XxpC-608" target="IcMdWuEY-IhWfZo9XxpC-618" edge="1">
          <mxGeometry width="50" height="50" relative="1" as="geometry">
            <mxPoint x="650" y="319" as="sourcePoint" />
            <mxPoint x="700" y="269" as="targetPoint" />
            <Array as="points">
              <mxPoint x="646" y="437" />
              <mxPoint x="646" y="499" />
            </Array>
          </mxGeometry>
        </mxCell>
        <mxCell id="IcMdWuEY-IhWfZo9XxpC-611" value="" style="group;imageHeight=24;arcSize=7;" parent="1" vertex="1" connectable="0">
          <mxGeometry x="465" y="514" width="120" height="80.5" as="geometry" />
        </mxCell>
        <mxCell id="IcMdWuEY-IhWfZo9XxpC-612" value="" style="rounded=1;whiteSpace=wrap;html=1;strokeColor=#1971c2;" parent="IcMdWuEY-IhWfZo9XxpC-611" vertex="1">
          <mxGeometry width="120" height="80.5" as="geometry" />
        </mxCell>
        <mxCell id="IcMdWuEY-IhWfZo9XxpC-613" value="&lt;div&gt;&lt;font data-font-src=&quot;https://fonts.googleapis.com/css?family=Roboto&quot; face=&quot;Roboto&quot;&gt;&lt;b&gt;VUI-WATCHDOG&lt;/b&gt;&lt;/font&gt;&lt;/div&gt;" style="text;html=1;align=center;verticalAlign=middle;whiteSpace=wrap;rounded=0;" parent="IcMdWuEY-IhWfZo9XxpC-611" vertex="1">
          <mxGeometry x="8.57142857142857" y="42.5" width="102.85714285714288" height="30" as="geometry" />
        </mxCell>
        <mxCell id="IcMdWuEY-IhWfZo9XxpC-615" value="" style="editableCssRules=.*;html=1;fontColor=#999999;shape=image;verticalLabelPosition=middle;verticalAlign=middle;labelPosition=right;align=left;spacingLeft=20;part=1;points=[];imageAspect=0;image=data:image/svg+xml,PHN2ZyB4bWxucz0iaHR0cDovL3d3dy53My5vcmcvMjAwMC9zdmciIHhtbG5zOnY9Imh0dHBzOi8vdmVjdGEuaW8vbmFubyIgd2lkdGg9IjE4LjMxOTk5OTY5NDgyNDIyIiBoZWlnaHQ9IjIwLjAwMDAwMTkwNzM0ODYzMyIgdmlld0JveD0iMCAwIDE4LjMxOTk5OTY5NDgyNDIyIDIwLjAwMDAwMTkwNzM0ODYzMyI+JiN4YTsJPHN0eWxlIHR5cGU9InRleHQvY3NzIj4uc3QwIHsgZmlsbDogcmdiKDEwMiwgMTU3LCAyNDYpOyB9IC5zdDEgeyBmaWxsOiByZ2IoMjUsIDExMywgMTk0KTsgfSAuc3QyIHsgZmlsbDogcmdiKDE3NCwgMjAzLCAyNTApOyB9IDwvc3R5bGU+JiN4YTsJPGRlZnM+JiN4YTsJCTxmaWx0ZXIgaWQ9IkEiIHg9IjQuNjQiIHk9IjQuMTkiIHdpZHRoPSIxNC43MyIgaGVpZ2h0PSIxMi43NiIgZmlsdGVyVW5pdHM9InVzZXJTcGFjZU9uVXNlIiBjb2xvci1pbnRlcnBvbGF0aW9uLWZpbHRlcnM9InNSR0IiPiYjeGE7CQkJPGZlRmxvb2QgZmxvb2QtY29sb3I9IiNmZmYiLz4mI3hhOwkJCTxmZUJsZW5kIGluPSJTb3VyY2VHcmFwaGljIi8+JiN4YTsJCTwvZmlsdGVyPiYjeGE7CQk8bWFzayBpZD0iQiIgeD0iNC42NCIgeT0iNC4xOSIgd2lkdGg9IjE0LjczIiBoZWlnaHQ9IjEyLjc2IiBtYXNrVW5pdHM9InVzZXJTcGFjZU9uVXNlIj4mI3hhOwkJCTxjaXJjbGUgY3g9IjEyIiBjeT0iMTIuMjMiIHI9IjMuNTgiIGZpbHRlcj0idXJsKCNBKSIvPiYjeGE7CQk8L21hc2s+JiN4YTsJPC9kZWZzPiYjeGE7CTxnIGNsYXNzPSJzdDAiPiYjeGE7CQk8Y2lyY2xlIGN4PSIxNi4xMyIgY3k9IjYuMjEiIHI9IjEuNzIiLz4mI3hhOwkJPGNpcmNsZSBjeD0iMi4xOSIgY3k9IjYuMjEiIHI9IjEuNzIiLz4mI3hhOwkJPGNpcmNsZSBjeD0iOS4xNiIgY3k9IjE4LjI4IiByPSIxLjcyIi8+JiN4YTsJPC9nPiYjeGE7CTxnIG1hc2s9InVybCgjQikiIHRyYW5zZm9ybT0idHJhbnNsYXRlKC0yLjg0IC0yKSI+JiN4YTsJCTxwYXRoIHRyYW5zZm9ybT0ibWF0cml4KC41IC0uODcgLjg3IC41IC00LjU5IDIwLjUzKSIgZD0iTTE0LjY5IDEwLjIyaDEuNTl2OC4wNGgtMS41OXoiIGNsYXNzPSJzdDEiLz4mI3hhOwkJPHBhdGggdHJhbnNmb3JtPSJyb3RhdGUoMzMwIDguNTIzIDE0LjI0NCkiIGQ9Ik00LjQ5IDEzLjQ1aDguMDR2MS41OUg0LjQ5eiIgY2xhc3M9InN0MSIvPiYjeGE7CQk8cGF0aCBkPSJNMTEuMiA0LjE5aDEuNTl2OC4wNEgxMS4yeiIgY2xhc3M9InN0MSIvPiYjeGE7CTwvZz4mI3hhOwk8ZyBjbGFzcz0ic3QyIj4mI3hhOwkJPGNpcmNsZSBjeD0iOS4xNiIgY3k9IjEwLjIzIiByPSIyLjc4Ii8+JiN4YTsJCTxjaXJjbGUgY3g9IjIuMTkiIGN5PSIxNC4yNSIgcj0iMi4xOSIvPiYjeGE7CQk8Y2lyY2xlIGN4PSIxNi4xMyIgY3k9IjE0LjI1IiByPSIyLjE5Ii8+JiN4YTsJCTxjaXJjbGUgY3g9IjkuMTYiIGN5PSIyLjE5IiByPSIyLjE5Ii8+JiN4YTsJPC9nPiYjeGE7PC9zdmc+;" parent="IcMdWuEY-IhWfZo9XxpC-611" vertex="1">
          <mxGeometry x="46.5" y="12.5" width="27" height="30" as="geometry" />
        </mxCell>
        <mxCell id="IcMdWuEY-IhWfZo9XxpC-607" value="" style="group" parent="1" vertex="1" connectable="0">
          <mxGeometry x="490" y="396.00000000000006" width="70" height="80.5" as="geometry" />
        </mxCell>
        <mxCell id="IcMdWuEY-IhWfZo9XxpC-608" value="" style="rounded=1;whiteSpace=wrap;html=1;strokeColor=#1971c2;arcSize=7;" parent="IcMdWuEY-IhWfZo9XxpC-607" vertex="1">
          <mxGeometry width="70" height="80.5" as="geometry" />
        </mxCell>
        <mxCell id="IcMdWuEY-IhWfZo9XxpC-610" value="&lt;div&gt;&lt;font data-font-src=&quot;https://fonts.googleapis.com/css?family=Roboto&quot; face=&quot;Roboto&quot;&gt;&lt;b&gt;VUI-API&lt;/b&gt;&lt;/font&gt;&lt;/div&gt;" style="text;html=1;align=center;verticalAlign=middle;whiteSpace=wrap;rounded=0;" parent="IcMdWuEY-IhWfZo9XxpC-607" vertex="1">
          <mxGeometry x="5" y="45.5" width="60" height="30" as="geometry" />
        </mxCell>
        <mxCell id="1wwzodUEzshTRSnOpasv-678" value="" style="aspect=fixed;sketch=0;html=1;dashed=0;whitespace=wrap;verticalLabelPosition=middle;verticalAlign=middle;fillColor=#1971c2;strokeColor=#ffffff;points=[[0.005,0.63,0],[0.1,0.2,0],[0.9,0.2,0],[0.5,0,0],[0.995,0.63,0],[0.72,0.99,0],[0.5,1,0],[0.28,0.99,0]];shape=mxgraph.kubernetes.icon2;prIcon=api;spacingLeft=26;labelPosition=right;align=left;" parent="IcMdWuEY-IhWfZo9XxpC-607" vertex="1">
          <mxGeometry x="17.5" y="11.740000000000009" width="35" height="32.76" as="geometry" />
        </mxCell>
        <mxCell id="orJ_QqOrFFiSL7yGLhhp-38" value="" style="endArrow=classic;html=1;rounded=0;entryX=-0.014;entryY=0.51;entryDx=0;entryDy=0;entryPerimeter=0;flowAnimation=1;strokeColor=#1971c2;exitX=1.002;exitY=0.496;exitDx=0;exitDy=0;exitPerimeter=0;flowAnimationDirection=normal;endFill=1;" edge="1" parent="1" source="IcMdWuEY-IhWfZo9XxpC-598" target="IcMdWuEY-IhWfZo9XxpC-608">
          <mxGeometry width="50" height="50" relative="1" as="geometry">
            <mxPoint x="232" y="433" as="sourcePoint" />
            <mxPoint x="499" y="329" as="targetPoint" />
            <Array as="points">
              <mxPoint x="318" y="376" />
              <mxPoint x="318" y="437" />
            </Array>
          </mxGeometry>
        </mxCell>
        <mxCell id="orJ_QqOrFFiSL7yGLhhp-40" value="&lt;font style=&quot;font-size: 7px;&quot; data-font-src=&quot;https://fonts.googleapis.com/css?family=Roboto&quot; face=&quot;Roboto&quot;&gt;https://&amp;lt;your-deploy&amp;gt;&lt;/font&gt;" style="text;html=1;align=center;verticalAlign=middle;whiteSpace=wrap;rounded=0;" vertex="1" parent="1">
          <mxGeometry x="383" y="300" width="96" height="18" as="geometry" />
        </mxCell>
        <mxCell id="orJ_QqOrFFiSL7yGLhhp-41" value="&lt;font style=&quot;font-size: 7px;&quot; data-font-src=&quot;https://fonts.googleapis.com/css?family=Roboto&quot; face=&quot;Roboto&quot;&gt;https://&amp;lt;your-deploy&amp;gt;/api&lt;/font&gt;" style="text;html=1;align=center;verticalAlign=middle;whiteSpace=wrap;rounded=0;" vertex="1" parent="1">
          <mxGeometry x="383" y="417" width="96" height="18" as="geometry" />
        </mxCell>
        <mxCell id="orJ_QqOrFFiSL7yGLhhp-42" value="" style="endArrow=classic;html=1;rounded=0;entryX=0.003;entryY=0.503;entryDx=0;entryDy=0;entryPerimeter=0;exitX=1.004;exitY=0.503;exitDx=0;exitDy=0;exitPerimeter=0;flowAnimation=1;strokeColor=#1971c2;" edge="1" parent="1" source="IcMdWuEY-IhWfZo9XxpC-612" target="IcMdWuEY-IhWfZo9XxpC-618">
          <mxGeometry width="50" height="50" relative="1" as="geometry">
            <mxPoint x="570" y="446" as="sourcePoint" />
            <mxPoint x="741" y="520" as="targetPoint" />
            <Array as="points">
              <mxPoint x="646" y="555" />
              <mxPoint x="646" y="499" />
            </Array>
          </mxGeometry>
        </mxCell>
      </root>
    </mxGraphModel>
  </diagram>
</mxfile>
